<svg width="565" height="108" viewBox="0 0 565 108" fill="none" xmlns="http://www.w3.org/2000/svg">
<path d="M64.2938 0C31.9046 0 5.90268 25.7547 0.916565 53.0135C-4.3374 81.5291 13.3612 106.295 44.6378 106.295C52.2406 106.295 59.7403 104.77 66.7662 102.009C57.9066 98.4036 51.8903 93.7471 49.047 88.1429C48.6967 88.1635 48.3464 88.1635 47.9756 88.1635C28.4432 88.1635 18.0795 71.7011 21.5409 53.0135C24.8581 34.8822 40.7643 18.1313 60.7087 18.1313C77.0269 18.2755 84.094 29.7518 85.8865 36.8189H107.623C106.367 21.8812 93.7778 0.144226 64.2938 0ZM79.7878 70.0322C78.1189 72.4016 73.1122 79.0773 64.9943 83.6101C67.8788 86.1856 74.0393 89.1731 84.5267 91.5219C91.6762 85.6705 97.5689 78.3149 101.525 70.0322H79.7878ZM79.7878 70.0322C78.1189 72.4016 73.1122 79.0773 64.9943 83.6101C67.8788 86.1856 74.0393 89.1731 84.5267 91.5219C91.6762 85.6705 97.5689 78.3149 101.525 70.0322H79.7878ZM79.7878 70.0322C78.1189 72.4016 73.1122 79.0773 64.9943 83.6101C67.8788 86.1856 74.0393 89.1731 84.5267 91.5219C91.6762 85.6705 97.5689 78.3149 101.525 70.0322H79.7878ZM79.7878 70.0322C78.1189 72.4016 73.1122 79.0773 64.9943 83.6101C67.8788 86.1856 74.0393 89.1731 84.5267 91.5219C91.6762 85.6705 97.5689 78.3149 101.525 70.0322H79.7878ZM62.0686 85.0936C59.184 86.4122 55.9698 87.4012 52.4466 87.8751C55.5372 92.8818 61.8007 97.0438 70.8046 100.258C74.5132 98.5066 78.0777 96.3844 81.3949 93.9532C71.5669 91.5219 65.1797 88.3696 62.0686 85.0936ZM79.7878 70.0322C78.1189 72.4016 73.1122 79.0773 64.9943 83.6101C67.8788 86.1856 74.0393 89.1731 84.5267 91.5219C91.6762 85.6705 97.5689 78.3149 101.525 70.0322H79.7878ZM79.7878 70.0322C78.1189 72.4016 73.1122 79.0773 64.9943 83.6101C67.8788 86.1856 74.0393 89.1731 84.5267 91.5219C91.6762 85.6705 97.5689 78.3149 101.525 70.0322H79.7878ZM79.7878 70.0322C78.1189 72.4016 73.1122 79.0773 64.9943 83.6101C67.8788 86.1856 74.0393 89.1731 84.5267 91.5219C91.6762 85.6705 97.5689 78.3149 101.525 70.0322H79.7878Z" fill="#08FF3F"/>
<path d="M330.763 1.93652L326.044 27.1349L324.108 38.1992C322.171 33.7693 315.392 26.0223 300.866 26.0223C293.944 26.0223 287.062 27.7736 280.778 31.0496C279.583 31.6472 278.429 32.3271 277.296 33.0482C274.246 34.9644 271.382 37.272 268.766 39.9093C267.962 40.7334 267.179 41.5782 266.417 42.4847C260.957 48.8719 256.919 56.9486 255.188 66.3027C254.673 69.043 254.405 71.7421 254.364 74.3588C262.07 71.3712 268.498 68.2807 273.505 65.2519C274.823 59.3592 278.182 53.6726 283.085 49.5312C283.868 48.8307 284.713 48.192 285.599 47.5945C288.257 45.8019 291.286 44.4215 294.603 43.6592C295.716 43.3913 296.869 43.1853 298.044 43.0616C299.012 42.9792 300.001 42.9174 301.011 42.9174C307.501 42.9174 312.899 45.3899 316.216 49.5518C319.678 53.5696 321.202 59.2356 320.11 65.8906C319.121 72.525 315.536 78.4795 310.406 82.7651C305.296 87.0507 298.93 89.688 292.275 89.688C284.631 89.688 278.965 86.5356 275.792 81.5701C272.784 83.136 269.508 84.7019 265.964 86.2265C263.223 87.401 260.38 88.5548 257.393 89.688C262.049 99.9487 271.98 106.707 286.197 106.707C301.691 106.707 310.282 99.1039 314.712 93.4173L312.631 104.358H329.918L348.894 1.93652H330.763ZM266.417 42.4847C260.957 48.8719 256.919 56.9486 255.188 66.3027C254.673 69.043 254.405 71.7421 254.364 74.3588C262.07 71.3712 268.498 68.2807 273.505 65.2519C274.823 59.3592 278.182 53.6726 283.085 49.5312C280.345 47.2442 275.029 44.6687 266.417 42.4847ZM266.417 42.4847C260.957 48.8719 256.919 56.9486 255.188 66.3027C254.673 69.043 254.405 71.7421 254.364 74.3588C262.07 71.3712 268.498 68.2807 273.505 65.2519C274.823 59.3592 278.182 53.6726 283.085 49.5312C280.345 47.2442 275.029 44.6687 266.417 42.4847ZM272.948 69.1254C267.88 71.9893 261.658 74.8533 254.467 77.5936C254.673 80.849 255.27 83.9395 256.259 86.8035C259.206 85.6908 262.049 84.5576 264.748 83.3832C268.21 81.8792 271.424 80.3545 274.37 78.8092C273.196 75.9453 272.701 72.6487 272.948 69.1254ZM266.417 42.4847C260.957 48.8719 256.919 56.9486 255.188 66.3027C254.673 69.043 254.405 71.7421 254.364 74.3588C262.07 71.3712 268.498 68.2807 273.505 65.2519C274.823 59.3592 278.182 53.6726 283.085 49.5312C280.345 47.2442 275.029 44.6687 266.417 42.4847Z" fill="#08FF3F"/>
<path d="M276.327 67.1267C275.276 67.786 274.143 68.4659 272.948 69.1253C272.701 72.6485 273.195 75.9451 274.37 78.809C275.317 78.3146 276.224 77.8201 277.11 77.3256C275.956 74.3586 275.668 70.8766 276.327 67.1267ZM276.327 67.1267C275.276 67.786 274.143 68.4659 272.948 69.1253C272.701 72.6485 273.195 75.9451 274.37 78.809C275.317 78.3146 276.224 77.8201 277.11 77.3256C275.956 74.3586 275.668 70.8766 276.327 67.1267ZM276.327 67.1267C275.276 67.786 274.143 68.4659 272.948 69.1253C272.701 72.6485 273.195 75.9451 274.37 78.809C275.317 78.3146 276.224 77.8201 277.11 77.3256C275.956 74.3586 275.668 70.8766 276.327 67.1267ZM276.327 67.1267C275.276 67.786 274.143 68.4659 272.948 69.1253C272.701 72.6485 273.195 75.9451 274.37 78.809C275.317 78.3146 276.224 77.8201 277.11 77.3256C275.956 74.3586 275.668 70.8766 276.327 67.1267ZM276.327 67.1267C275.276 67.786 274.143 68.4659 272.948 69.1253C272.701 72.6485 273.195 75.9451 274.37 78.809C275.317 78.3146 276.224 77.8201 277.11 77.3256C275.956 74.3586 275.668 70.8766 276.327 67.1267ZM254.466 77.5934C253.477 77.9849 252.468 78.3764 251.438 78.7472C251.705 81.9614 252.344 85.0108 253.333 87.8747C254.322 87.5244 255.29 87.1536 256.259 86.8033C255.27 83.9394 254.672 80.8488 254.466 77.5934ZM276.327 67.1267C275.276 67.786 274.143 68.4659 272.948 69.1253C272.701 72.6485 273.195 75.9451 274.37 78.809C275.317 78.3146 276.224 77.8201 277.11 77.3256C275.956 74.3586 275.668 70.8766 276.327 67.1267ZM254.466 77.5934C253.477 77.9849 252.468 78.3764 251.438 78.7472C251.705 81.9614 252.344 85.0108 253.333 87.8747C254.322 87.5244 255.29 87.1536 256.259 86.8033C255.27 83.9394 254.672 80.8488 254.466 77.5934ZM276.327 67.1267C275.276 67.786 274.143 68.4659 272.948 69.1253C272.701 72.6485 273.195 75.9451 274.37 78.809C275.317 78.3146 276.224 77.8201 277.11 77.3256C275.956 74.3586 275.668 70.8766 276.327 67.1267ZM276.327 67.1267C275.276 67.786 274.143 68.4659 272.948 69.1253C272.701 72.6485 273.195 75.9451 274.37 78.809C275.317 78.3146 276.224 77.8201 277.11 77.3256C275.956 74.3586 275.668 70.8766 276.327 67.1267ZM254.466 77.5934C253.477 77.9849 252.468 78.3764 251.438 78.7472C251.705 81.9614 252.344 85.0108 253.333 87.8747C254.322 87.5244 255.29 87.1536 256.259 86.8033C255.27 83.9394 254.672 80.8488 254.466 77.5934ZM276.327 67.1267C275.276 67.786 274.143 68.4659 272.948 69.1253C272.701 72.6485 273.195 75.9451 274.37 78.809C275.317 78.3146 276.224 77.8201 277.11 77.3256C275.956 74.3586 275.668 70.8766 276.327 67.1267ZM254.466 77.5934C253.477 77.9849 252.468 78.3764 251.438 78.7472C251.705 81.9614 252.344 85.0108 253.333 87.8747C254.322 87.5244 255.29 87.1536 256.259 86.8033C255.27 83.9394 254.672 80.8488 254.466 77.5934ZM276.327 67.1267C275.276 67.786 274.143 68.4659 272.948 69.1253C272.701 72.6485 273.195 75.9451 274.37 78.809C275.317 78.3146 276.224 77.8201 277.11 77.3256C275.956 74.3586 275.668 70.8766 276.327 67.1267ZM276.327 67.1267C275.276 67.786 274.143 68.4659 272.948 69.1253C272.701 72.6485 273.195 75.9451 274.37 78.809C275.317 78.3146 276.224 77.8201 277.11 77.3256C275.956 74.3586 275.668 70.8766 276.327 67.1267Z" fill="white"/>
<path d="M353.797 28.3716H370.96L369.024 38.3438C373.598 31.5652 380.438 28.66 391.914 28.5158L388.947 44.2983H388.123C375.39 44.2983 367.787 50.2528 365.418 63.398L357.815 104.358H339.684L353.797 28.3716Z" fill="white"/>
<path d="M398.94 28.3712H417.071L402.958 104.358H384.826L398.94 28.3712ZM403.782 1.93652H421.913L418.864 18.1311H400.733L403.782 1.93652Z" fill="white"/>
<path d="M453.52 104.358H435.801L421.687 28.3716H440.519L448.966 81.5087L477.07 28.3716H495.902L453.561 104.358H453.52Z" fill="white"/>
<path d="M501.588 72.3813C500.207 84.5581 509.623 91.3367 520.131 91.1925C528.991 91.1925 535.625 87.1748 540.199 80.9524H558.887C553.757 89.4 547.122 95.7666 540.076 100.052C532.885 104.482 524.994 106.687 517.103 106.687C493.717 106.687 480.428 87.7311 484.446 66.5504C488.463 44.9577 508.799 26.0022 531.772 26.0022C543.125 26.0022 552.253 30.2878 557.919 37.6227C565.521 47.1623 566.778 59.0712 562.761 72.3607H501.588V72.3813ZM547.39 58.5561C548.091 51.3654 542.404 41.249 528.991 41.3932C515.557 41.3932 506.43 51.077 504.349 58.5561H547.39Z" fill="#08FF3F"/>
<path d="M298.023 51.1595C297.797 49.5112 297.261 47.9453 296.457 46.4412C293.161 47.0388 290.214 48.2956 287.618 50.0057C288.092 50.768 288.381 51.551 288.484 52.3339C289.102 56.7019 284.713 61.8529 276.328 67.1274C275.277 67.7868 274.144 68.4667 272.949 69.126C272.701 72.6492 273.196 75.9458 274.37 78.8098C275.318 78.3153 276.225 77.8208 277.11 77.3263C292.069 68.9406 299.26 59.9985 298.023 51.1595ZM298.023 51.1595C297.797 49.5112 297.261 47.9453 296.457 46.4412C293.161 47.0388 290.214 48.2956 287.618 50.0057C288.092 50.768 288.381 51.551 288.484 52.3339C289.102 56.7019 284.713 61.8529 276.328 67.1274C275.277 67.7868 274.144 68.4667 272.949 69.126C267.88 71.9899 261.658 74.8538 254.467 77.5941C253.478 77.9856 252.468 78.3771 251.438 78.748C232.421 85.712 207.161 91.9138 178.254 95.54C161.729 97.6004 145.514 98.6718 130.061 98.6718C108.984 98.6718 92.851 96.7969 81.3953 93.9535C71.5673 91.5223 65.1801 88.3699 62.0689 85.0939C60.8121 83.7547 60.091 82.4154 59.9055 81.0762C57.9894 67.4571 104.739 46.091 170.156 37.8701C186.639 35.8097 202.854 34.7589 218.307 34.7589C238.355 34.7589 253.952 36.469 265.284 39.0651C267.756 36.3454 270.497 33.8936 273.464 31.8126C259.989 27.7948 241.425 25.6108 218.843 25.6108C203.04 25.6108 186.227 26.7028 168.879 28.8868C135.83 33.0488 105.563 40.5486 83.6411 50.0263C60.3382 60.1222 48.8413 71.2688 50.3866 82.2506C50.6544 84.2285 51.355 86.1035 52.447 87.8754C55.5375 92.8821 61.8011 97.0441 70.8049 100.258C84.5064 105.141 104.554 107.799 129.546 107.799C145.349 107.799 162.162 106.707 179.51 104.523C207.14 101.041 232.833 95.231 253.334 87.8754C254.323 87.5252 255.291 87.1543 256.259 86.804C259.206 85.6914 262.049 84.5582 264.748 83.3838C268.21 81.8797 271.424 80.355 274.37 78.8098C275.318 78.3153 276.225 77.8208 277.11 77.3263C292.069 68.9406 299.26 59.9985 298.023 51.1595ZM277.296 33.0488C274.247 34.965 271.383 37.2726 268.766 39.9099C276.925 42.0939 282.488 44.7929 285.599 47.5951C288.257 45.8025 291.286 44.4221 294.603 43.6597C291.183 39.4154 285.331 35.8509 277.296 33.0488Z" fill="#08FF3F"/>
</svg>
