<svg width="116" height="22" viewBox="0 0 116 22" fill="none" xmlns="http://www.w3.org/2000/svg">
<path d="M13.1211 0C6.51113 0 1.20463 5.25605 0.187054 10.8191C-0.885181 16.6386 2.72678 21.6928 9.10973 21.6928C10.6613 21.6928 12.1919 21.3816 13.6257 20.8182C11.8176 20.0823 10.5898 19.132 10.0096 17.9883C9.93808 17.9925 9.8666 17.9925 9.79091 17.9925C5.80472 17.9925 3.68969 14.6328 4.3961 10.8191C5.07308 7.11879 8.31921 3.70026 12.3895 3.70026C15.7197 3.72969 17.162 6.07179 17.5278 7.51405H21.9639C21.7074 4.46554 19.1383 0.0294339 13.1211 0ZM16.2832 14.2923C15.9426 14.7758 14.9208 16.1382 13.2641 17.0632C13.8528 17.5888 15.11 18.1985 17.2503 18.6779C18.7094 17.4837 19.912 15.9826 20.7193 14.2923H16.2832ZM16.2832 14.2923C15.9426 14.7758 14.9208 16.1382 13.2641 17.0632C13.8528 17.5888 15.11 18.1985 17.2503 18.6779C18.7094 17.4837 19.912 15.9826 20.7193 14.2923H16.2832ZM16.2832 14.2923C15.9426 14.7758 14.9208 16.1382 13.2641 17.0632C13.8528 17.5888 15.11 18.1985 17.2503 18.6779C18.7094 17.4837 19.912 15.9826 20.7193 14.2923H16.2832ZM16.2832 14.2923C15.9426 14.7758 14.9208 16.1382 13.2641 17.0632C13.8528 17.5888 15.11 18.1985 17.2503 18.6779C18.7094 17.4837 19.912 15.9826 20.7193 14.2923H16.2832ZM12.667 17.366C12.0783 17.6351 11.4224 17.8369 10.7034 17.9336C11.3341 18.9554 12.6124 19.8048 14.4499 20.4608C15.2067 20.1033 15.9342 19.6702 16.6112 19.1741C14.6055 18.6779 13.302 18.0346 12.667 17.366ZM16.2832 14.2923C15.9426 14.7758 14.9208 16.1382 13.2641 17.0632C13.8528 17.5888 15.11 18.1985 17.2503 18.6779C18.7094 17.4837 19.912 15.9826 20.7193 14.2923H16.2832ZM16.2832 14.2923C15.9426 14.7758 14.9208 16.1382 13.2641 17.0632C13.8528 17.5888 15.11 18.1985 17.2503 18.6779C18.7094 17.4837 19.912 15.9826 20.7193 14.2923H16.2832ZM16.2832 14.2923C15.9426 14.7758 14.9208 16.1382 13.2641 17.0632C13.8528 17.5888 15.11 18.1985 17.2503 18.6779C18.7094 17.4837 19.912 15.9826 20.7193 14.2923H16.2832Z" fill="#8B8E98"/>
<path d="M67.5024 0.396484L66.5395 5.53901L66.1442 7.797C65.749 6.89296 64.3656 5.31194 61.4012 5.31194C59.9883 5.31194 58.5839 5.66935 57.3014 6.33792C57.0576 6.45987 56.8221 6.59863 56.5908 6.74579C55.9685 7.13685 55.384 7.60779 54.85 8.14601C54.686 8.3142 54.5262 8.4866 54.3707 8.67161C53.2564 9.97511 52.4322 11.6234 52.079 13.5324C51.9739 14.0917 51.9192 14.6425 51.9108 15.1765C53.4834 14.5668 54.7954 13.9361 55.8171 13.318C56.0862 12.1154 56.7716 10.9548 57.7724 10.1097C57.9322 9.9667 58.1046 9.83635 58.2854 9.71441C58.8278 9.34859 59.4459 9.06687 60.1229 8.91129C60.3499 8.85662 60.5854 8.81458 60.8251 8.78935C61.0227 8.77253 61.2245 8.75991 61.4306 8.75991C62.7551 8.75991 63.8568 9.26449 64.5338 10.1139C65.2402 10.9338 65.5513 12.0901 65.3285 13.4483C65.1266 14.8023 64.395 16.0175 63.348 16.8921C62.3052 17.7667 61.0059 18.3049 59.6477 18.3049C58.0877 18.3049 56.9314 17.6616 56.2839 16.6482C55.67 16.9678 55.0014 17.2873 54.2782 17.5985C53.7189 17.8382 53.1386 18.0736 52.5289 18.3049C53.4792 20.3989 55.506 21.7781 58.4073 21.7781C61.5693 21.7781 63.3228 20.2265 64.2268 19.066L63.8021 21.2987H67.33L71.2026 0.396484H67.5024ZM54.3707 8.67161C53.2564 9.97511 52.4322 11.6234 52.079 13.5324C51.9739 14.0917 51.9192 14.6425 51.9108 15.1765C53.4834 14.5668 54.7954 13.9361 55.8171 13.318C56.0862 12.1154 56.7716 10.9548 57.7724 10.1097C57.2131 9.64293 56.1283 9.11732 54.3707 8.67161ZM54.3707 8.67161C53.2564 9.97511 52.4322 11.6234 52.079 13.5324C51.9739 14.0917 51.9192 14.6425 51.9108 15.1765C53.4834 14.5668 54.7954 13.9361 55.8171 13.318C56.0862 12.1154 56.7716 10.9548 57.7724 10.1097C57.2131 9.64293 56.1283 9.11732 54.3707 8.67161ZM55.7036 14.1085C54.6692 14.6929 53.3993 15.2774 51.9319 15.8367C51.9739 16.501 52.0958 17.1318 52.2977 17.7162C52.899 17.4892 53.4792 17.2579 54.0301 17.0182C54.7365 16.7113 55.3924 16.4001 55.9937 16.0847C55.7541 15.5003 55.6531 14.8275 55.7036 14.1085ZM54.3707 8.67161C53.2564 9.97511 52.4322 11.6234 52.079 13.5324C51.9739 14.0917 51.9192 14.6425 51.9108 15.1765C53.4834 14.5668 54.7954 13.9361 55.8171 13.318C56.0862 12.1154 56.7716 10.9548 57.7724 10.1097C57.2131 9.64293 56.1283 9.11732 54.3707 8.67161Z" fill="#8B8E98"/>
<path d="M56.3932 13.6992C56.1787 13.8338 55.9475 13.9725 55.7036 14.1071C55.6531 14.8261 55.754 15.4989 55.9937 16.0834C56.1871 15.9824 56.3721 15.8815 56.553 15.7806C56.3175 15.1751 56.2586 14.4645 56.3932 13.6992ZM56.3932 13.6992C56.1787 13.8338 55.9475 13.9725 55.7036 14.1071C55.6531 14.8261 55.754 15.4989 55.9937 16.0834C56.1871 15.9824 56.3721 15.8815 56.553 15.7806C56.3175 15.1751 56.2586 14.4645 56.3932 13.6992ZM56.3932 13.6992C56.1787 13.8338 55.9475 13.9725 55.7036 14.1071C55.6531 14.8261 55.754 15.4989 55.9937 16.0834C56.1871 15.9824 56.3721 15.8815 56.553 15.7806C56.3175 15.1751 56.2586 14.4645 56.3932 13.6992ZM56.3932 13.6992C56.1787 13.8338 55.9475 13.9725 55.7036 14.1071C55.6531 14.8261 55.754 15.4989 55.9937 16.0834C56.1871 15.9824 56.3721 15.8815 56.553 15.7806C56.3175 15.1751 56.2586 14.4645 56.3932 13.6992ZM56.3932 13.6992C56.1787 13.8338 55.9475 13.9725 55.7036 14.1071C55.6531 14.8261 55.754 15.4989 55.9937 16.0834C56.1871 15.9824 56.3721 15.8815 56.553 15.7806C56.3175 15.1751 56.2586 14.4645 56.3932 13.6992ZM51.9318 15.8353C51.73 15.9152 51.524 15.9951 51.3137 16.0707C51.3684 16.7267 51.4987 17.349 51.7006 17.9335C51.9024 17.862 52.1 17.7863 52.2977 17.7148C52.0958 17.1304 51.9739 16.4996 51.9318 15.8353ZM56.3932 13.6992C56.1787 13.8338 55.9475 13.9725 55.7036 14.1071C55.6531 14.8261 55.754 15.4989 55.9937 16.0834C56.1871 15.9824 56.3721 15.8815 56.553 15.7806C56.3175 15.1751 56.2586 14.4645 56.3932 13.6992ZM51.9318 15.8353C51.73 15.9152 51.524 15.9951 51.3137 16.0707C51.3684 16.7267 51.4987 17.349 51.7006 17.9335C51.9024 17.862 52.1 17.7863 52.2977 17.7148C52.0958 17.1304 51.9739 16.4996 51.9318 15.8353ZM56.3932 13.6992C56.1787 13.8338 55.9475 13.9725 55.7036 14.1071C55.6531 14.8261 55.754 15.4989 55.9937 16.0834C56.1871 15.9824 56.3721 15.8815 56.553 15.7806C56.3175 15.1751 56.2586 14.4645 56.3932 13.6992ZM56.3932 13.6992C56.1787 13.8338 55.9475 13.9725 55.7036 14.1071C55.6531 14.8261 55.754 15.4989 55.9937 16.0834C56.1871 15.9824 56.3721 15.8815 56.553 15.7806C56.3175 15.1751 56.2586 14.4645 56.3932 13.6992ZM51.9318 15.8353C51.73 15.9152 51.524 15.9951 51.3137 16.0707C51.3684 16.7267 51.4987 17.349 51.7006 17.9335C51.9024 17.862 52.1 17.7863 52.2977 17.7148C52.0958 17.1304 51.9739 16.4996 51.9318 15.8353ZM56.3932 13.6992C56.1787 13.8338 55.9475 13.9725 55.7036 14.1071C55.6531 14.8261 55.754 15.4989 55.9937 16.0834C56.1871 15.9824 56.3721 15.8815 56.553 15.7806C56.3175 15.1751 56.2586 14.4645 56.3932 13.6992ZM51.9318 15.8353C51.73 15.9152 51.524 15.9951 51.3137 16.0707C51.3684 16.7267 51.4987 17.349 51.7006 17.9335C51.9024 17.862 52.1 17.7863 52.2977 17.7148C52.0958 17.1304 51.9739 16.4996 51.9318 15.8353ZM56.3932 13.6992C56.1787 13.8338 55.9475 13.9725 55.7036 14.1071C55.6531 14.8261 55.754 15.4989 55.9937 16.0834C56.1871 15.9824 56.3721 15.8815 56.553 15.7806C56.3175 15.1751 56.2586 14.4645 56.3932 13.6992ZM56.3932 13.6992C56.1787 13.8338 55.9475 13.9725 55.7036 14.1071C55.6531 14.8261 55.754 15.4989 55.9937 16.0834C56.1871 15.9824 56.3721 15.8815 56.553 15.7806C56.3175 15.1751 56.2586 14.4645 56.3932 13.6992Z" fill="#8B8E98"/>
<path d="M72.2033 5.78906H75.7059L75.3107 7.82421C76.2442 6.44081 77.6402 5.84793 79.9823 5.8185L79.3768 9.0394H79.2086C76.61 9.0394 75.0584 10.2546 74.5748 12.9373L73.0233 21.2965H69.323L72.2033 5.78906Z" fill="#8B8E98"/>
<path d="M81.4161 5.78934H85.1164L82.2361 21.2968H78.5358L81.4161 5.78934ZM82.4043 0.394531H86.1045L85.4822 3.69954H81.782L82.4043 0.394531Z" fill="#8B8E98"/>
<path d="M92.5548 21.2965H88.9386L86.0583 5.78906H89.9015L91.6255 16.6333L97.3609 5.78906H101.204L92.5632 21.2965H92.5548Z" fill="#8B8E98"/>
<path d="M102.365 14.7698C102.083 17.2548 104.005 18.6382 106.149 18.6088C107.957 18.6088 109.311 17.7889 110.245 16.519H114.058C113.011 18.243 111.657 19.5423 110.219 20.4169C108.752 21.3209 107.141 21.7708 105.531 21.7708C100.758 21.7708 98.0463 17.9024 98.8662 13.5798C99.6862 9.17314 103.836 5.30469 108.525 5.30469C110.842 5.30469 112.704 6.17929 113.861 7.67622C115.412 9.62306 115.669 12.0535 114.849 14.7656H102.365V14.7698ZM111.712 11.9483C111.855 10.4808 110.694 8.41627 107.957 8.4457C105.216 8.4457 103.353 10.422 102.928 11.9483H111.712Z" fill="#8B8E98"/>
<path d="M60.8209 10.4406C60.7747 10.1042 60.6654 9.78461 60.5014 9.47766C59.8286 9.5996 59.2273 9.85609 58.6975 10.2051C58.7942 10.3607 58.8531 10.5205 58.8741 10.6802C59.0002 11.5717 58.1046 12.6229 56.3932 13.6993C56.1788 13.8339 55.9475 13.9726 55.7036 14.1072C55.6532 14.8262 55.7541 15.499 55.9938 16.0835C56.1872 15.9825 56.3722 15.8816 56.553 15.7807C59.6057 14.0693 61.0732 12.2444 60.8209 10.4406ZM60.8209 10.4406C60.7747 10.1042 60.6654 9.78461 60.5014 9.47766C59.8286 9.5996 59.2273 9.85609 58.6975 10.2051C58.7942 10.3607 58.8531 10.5205 58.8741 10.6802C59.0002 11.5717 58.1046 12.6229 56.3932 13.6993C56.1788 13.8339 55.9475 13.9726 55.7036 14.1072C54.6693 14.6917 53.3994 15.2761 51.9319 15.8354C51.7301 15.9153 51.524 15.9952 51.3138 16.0708C47.4327 17.4921 42.2776 18.7577 36.3782 19.4978C33.0059 19.9183 29.6967 20.1369 26.5431 20.1369C22.2415 20.1369 18.9491 19.7543 16.6112 19.174C14.6055 18.6778 13.302 18.0345 12.6671 17.3659C12.4106 17.0926 12.2634 16.8193 12.2256 16.546C11.8345 13.7666 21.3753 9.40617 34.7257 7.72844C38.0896 7.30796 41.3988 7.09351 44.5524 7.09351C48.6437 7.09351 51.8268 7.44251 54.1394 7.97232C54.644 7.41728 55.2033 6.91691 55.8088 6.49222C53.0588 5.67228 49.2702 5.22656 44.6617 5.22656C41.4366 5.22656 38.0055 5.44942 34.465 5.89513C27.7204 6.74451 21.5435 8.27507 17.0696 10.2093C12.3139 12.2697 9.9676 14.5445 10.283 16.7857C10.3376 17.1893 10.4806 17.572 10.7034 17.9336C11.3342 18.9554 12.6124 19.8047 14.45 20.4607C17.2462 21.4572 21.3375 21.9997 26.438 21.9997C29.6631 21.9997 33.0942 21.7768 36.6347 21.3311C42.2734 20.6205 47.5168 19.4347 51.7006 17.9336C51.9025 17.8621 52.1001 17.7864 52.2977 17.7149C52.899 17.4879 53.4793 17.2566 54.0301 17.0169C54.7365 16.71 55.3925 16.3988 55.9938 16.0835C56.1872 15.9825 56.3722 15.8816 56.553 15.7807C59.6057 14.0693 61.0732 12.2444 60.8209 10.4406ZM56.5909 6.74451C55.9686 7.13556 55.3841 7.6065 54.8501 8.14472C56.5152 8.59044 57.6505 9.14127 58.2854 9.71313C58.8278 9.34731 59.446 9.06558 60.1229 8.91C59.4249 8.04381 58.2308 7.31637 56.5909 6.74451Z" fill="#8B8E98"/>
</svg>
