<svg width="28" height="28" viewBox="0 0 28 28" fill="none" xmlns="http://www.w3.org/2000/svg">
<path d="M14 2C6.8175 2 1 7.50583 1 14.3035C1 19.7478 4.72125 24.3463 9.88875 25.9765C10.5387 26.0842 10.7825 25.715 10.7825 25.3921C10.7825 25.0999 10.7662 24.131 10.7662 23.1005C7.5 23.6696 6.655 22.347 6.395 21.6549C6.24875 21.3012 5.615 20.2092 5.0625 19.917C4.6075 19.6863 3.9575 19.1173 5.04625 19.1019C6.07 19.0865 6.80125 19.9939 7.045 20.363C8.215 22.2239 10.0837 21.701 10.8312 21.3781C10.945 20.5783 11.2862 20.04 11.66 19.7325C8.7675 19.4249 5.745 18.3637 5.745 13.6576C5.745 12.3196 6.24875 11.2123 7.0775 10.351C6.9475 10.0434 6.4925 8.78232 7.2075 7.09058C7.2075 7.09058 8.29625 6.76762 10.7825 8.3517C11.8225 8.07487 12.9275 7.93645 14.0325 7.93645C15.1375 7.93645 16.2425 8.07487 17.2825 8.3517C19.7687 6.75224 20.8575 7.09058 20.8575 7.09058C21.5725 8.78232 21.1175 10.0434 20.9875 10.351C21.8162 11.2123 22.32 12.3042 22.32 13.6576C22.32 18.3791 19.2812 19.4249 16.3888 19.7325C16.86 20.1169 17.2662 20.8552 17.2662 22.0086C17.2662 23.6542 17.25 24.9768 17.25 25.3921C17.25 25.715 17.4937 26.0995 18.1437 25.9765C20.7245 25.152 22.967 23.5822 24.5557 21.4882C26.1444 19.3942 26.9993 16.8815 27 14.3035C27 7.50583 21.1825 2 14 2Z" fill="white"/>
</svg>
