<svg width="20" height="20" viewBox="0 0 20 20" fill="none" xmlns="http://www.w3.org/2000/svg">
<g clip-path="url(#clip0_3758_1723)">
<circle cx="10" cy="10" r="9.5" fill="white"/>
<path d="M9.99994 1.76465C5.44994 1.76465 1.76465 5.44994 1.76465 9.99994C1.76465 13.6441 4.122 16.722 7.39553 17.8132C7.8073 17.8852 7.96171 17.6382 7.96171 17.422C7.96171 17.2264 7.95141 16.5779 7.95141 15.8882C5.8823 16.2691 5.347 15.3838 5.1823 14.9205C5.08965 14.6838 4.68818 13.9529 4.33818 13.7573C4.04994 13.6029 3.63818 13.222 4.32788 13.2117C4.97641 13.2014 5.43965 13.8088 5.59406 14.0558C6.33524 15.3014 7.51906 14.9514 7.99259 14.7352C8.06465 14.1999 8.28083 13.8396 8.51759 13.6338C6.68524 13.4279 4.77053 12.7176 4.77053 9.56759C4.77053 8.672 5.08965 7.93082 5.61465 7.35435C5.5323 7.14847 5.24406 6.30435 5.697 5.172C5.697 5.172 6.38671 4.95582 7.96171 6.01612C8.62053 5.83082 9.32053 5.73818 10.0205 5.73818C10.7205 5.73818 11.4205 5.83082 12.0794 6.01612C13.6544 4.94553 14.3441 5.172 14.3441 5.172C14.797 6.30435 14.5088 7.14847 14.4264 7.35435C14.9514 7.93082 15.2705 8.66171 15.2705 9.56759C15.2705 12.7279 13.3455 13.4279 11.5132 13.6338C11.8117 13.8911 12.0691 14.3852 12.0691 15.1573C12.0691 16.2588 12.0588 17.1441 12.0588 17.422C12.0588 17.6382 12.2132 17.8955 12.6249 17.8132C14.2598 17.2613 15.6804 16.2106 16.6868 14.8089C17.6932 13.4074 18.2348 11.7255 18.2352 9.99994C18.2352 5.44994 14.5499 1.76465 9.99994 1.76465Z" fill="#0B0C0F"/>
</g>
<defs>
<clipPath id="clip0_3758_1723">
<rect width="20" height="20" fill="white"/>
</clipPath>
</defs>
</svg>
