<svg width="36" height="36" viewBox="0 0 36 36" fill="none" xmlns="http://www.w3.org/2000/svg">
<path d="M18 4C10.265 4 4 10.265 4 18C4 24.195 8.0075 29.4275 13.5725 31.2825C14.2725 31.405 14.535 30.985 14.535 30.6175C14.535 30.285 14.5175 29.1825 14.5175 28.01C11 28.6575 10.09 27.1525 9.81 26.365C9.6525 25.9625 8.97 24.72 8.375 24.3875C7.885 24.125 7.185 23.4775 8.3575 23.46C9.46 23.4425 10.2475 24.475 10.51 24.895C11.77 27.0125 13.7825 26.4175 14.5875 26.05C14.71 25.14 15.0775 24.5275 15.48 24.1775C12.365 23.8275 9.11 22.62 9.11 17.265C9.11 15.7425 9.6525 14.4825 10.545 13.5025C10.405 13.1525 9.915 11.7175 10.685 9.7925C10.685 9.7925 11.8575 9.425 14.535 11.2275C15.655 10.9125 16.845 10.755 18.035 10.755C19.225 10.755 20.415 10.9125 21.535 11.2275C24.2125 9.4075 25.385 9.7925 25.385 9.7925C26.155 11.7175 25.665 13.1525 25.525 13.5025C26.4175 14.4825 26.96 15.725 26.96 17.265C26.96 22.6375 23.6875 23.8275 20.5725 24.1775C21.08 24.615 21.5175 25.455 21.5175 26.7675C21.5175 28.64 21.5 30.145 21.5 30.6175C21.5 30.985 21.7625 31.4225 22.4625 31.2825C25.2418 30.3443 27.6568 28.5581 29.3677 26.1753C31.0786 23.7926 31.9993 20.9334 32 18C32 10.265 25.735 4 18 4Z" fill="white"/>
</svg>
