<svg width="18" height="18" viewBox="0 0 18 18" fill="none" xmlns="http://www.w3.org/2000/svg">
<path fill-rule="evenodd" clip-rule="evenodd" d="M8.9628 3.10693C7.56938 3.10693 6.43994 4.23589 6.43994 5.62888C6.43994 7.02188 7.56938 8.15083 8.9628 8.15083C10.3552 8.15083 11.4848 7.02198 11.4848 5.62888C11.4848 4.23578 10.3552 3.10693 8.9628 3.10693ZM5.31494 5.62888C5.31494 3.61414 6.94849 1.98193 8.9628 1.98193C10.9763 1.98193 12.6098 3.61425 12.6098 5.62888C12.6098 7.64352 10.9763 9.27583 8.9628 9.27583C6.94849 9.27583 5.31494 7.64363 5.31494 5.62888Z" fill="white"/>
<path fill-rule="evenodd" clip-rule="evenodd" d="M4.76455 13.9964C5.9952 14.6346 7.4263 14.8969 8.98485 14.8931H8.98759C10.5461 14.8969 11.9772 14.6346 13.2078 13.9964C12.4935 12.3296 10.9224 11.5249 8.98766 11.5298H8.98478C7.0476 11.5249 5.47903 12.3276 4.76455 13.9964ZM8.98622 10.4048C6.53154 10.399 4.33788 11.5419 3.5348 14.0815L3.40186 14.5019L3.77833 14.7314C5.32469 15.6741 7.12082 16.0224 8.98622 16.0181C10.8516 16.0224 12.6478 15.6741 14.1941 14.7314L14.5706 14.5019L14.4376 14.0815C13.6354 11.5444 11.4385 10.399 8.98622 10.4048Z" fill="white"/>
<path fill-rule="evenodd" clip-rule="evenodd" d="M4.94727 9.76711C3.17369 9.76257 1.55367 10.5961 0.963555 12.4623L0.830625 12.8826L1.20709 13.1121C1.81254 13.4812 2.4698 13.7234 3.15576 13.8673L3.70629 13.9827L3.93712 12.8816L3.38659 12.7662C2.96943 12.6787 2.57531 12.5504 2.2073 12.3755C2.70291 11.3787 3.69771 10.8889 4.94439 10.8921L5.50689 10.8935L5.50977 9.76855L4.94727 9.76711Z" fill="white"/>
<path fill-rule="evenodd" clip-rule="evenodd" d="M6.52843 4.28684L6.00904 4.07089C4.61984 3.49328 3.0246 4.15089 2.44666 5.54088C1.86872 6.93088 2.52745 8.52565 3.91666 9.10326C5.06404 9.58033 6.35013 9.21526 7.08959 8.29267L7.44138 7.85376L6.56355 7.15017L6.21176 7.58908C5.77734 8.13108 5.0214 8.34423 4.34857 8.06447C3.53287 7.72532 3.14613 6.78888 3.48545 5.97279C3.82477 5.1567 4.76143 4.77052 5.57713 5.10967L6.09652 5.32563L6.52843 4.28684Z" fill="white"/>
<path fill-rule="evenodd" clip-rule="evenodd" d="M13.0527 9.76711C14.8263 9.76257 16.4463 10.5961 17.0364 12.4623L17.1694 12.8826L16.7929 13.1121C16.1875 13.4812 15.5302 13.7234 14.8442 13.8673L14.2937 13.9827L14.0629 12.8816L14.6134 12.7662C15.0306 12.6787 15.4247 12.5504 15.7927 12.3755C15.2971 11.3787 14.3023 10.8889 13.0556 10.8921L12.4931 10.8935L12.4902 9.76855L13.0527 9.76711Z" fill="white"/>
<path fill-rule="evenodd" clip-rule="evenodd" d="M11.2694 4.43885L11.7667 4.1761C12.9139 3.57011 14.3647 3.85419 15.189 4.91465C16.1129 6.10317 15.8978 7.81517 14.71 8.73851C13.5217 9.66218 11.8095 9.44842 10.8856 8.25982L10.5404 7.81571L11.4286 7.12528L11.7738 7.56939C12.3162 8.2671 13.3215 8.39291 14.0195 7.85029C14.717 7.30814 14.8432 6.30288 14.3008 5.60508C13.8174 4.9832 12.9653 4.81528 12.2922 5.17084L11.7949 5.43358L11.2694 4.43885Z" fill="white"/>
</svg>
