<svg width="18" height="18" viewBox="0 0 18 18" fill="none" xmlns="http://www.w3.org/2000/svg">
<path fill-rule="evenodd" clip-rule="evenodd" d="M9 2.625C5.47891 2.625 2.625 5.47891 2.625 9C2.625 12.5204 5.47895 15.375 9 15.375C12.5203 15.375 15.375 12.5203 15.375 9C15.375 5.47895 12.5204 2.625 9 2.625ZM1.5 9C1.5 4.85759 4.85759 1.5 9 1.5C13.1416 1.5 16.5 4.85755 16.5 9C16.5 13.1417 13.1417 16.5 9 16.5C4.85755 16.5 1.5 13.1416 1.5 9Z" fill="#B2B4BA"/>
<path fill-rule="evenodd" clip-rule="evenodd" d="M9.55859 5.59082V10.0301H8.43359V5.59082H9.55859Z" fill="#B2B4BA"/>
<path fill-rule="evenodd" clip-rule="evenodd" d="M8.43359 11.2842H9.56609V12.4092H8.43359V11.2842Z" fill="#B2B4BA"/>
</svg>
