<svg width="238" height="46" viewBox="0 0 238 46" fill="none" xmlns="http://www.w3.org/2000/svg">
<path d="M27.0374 0C13.4168 0 2.48225 10.8306 0.385443 22.2937C-1.824 34.2854 5.61879 44.7001 18.7715 44.7001C21.9687 44.7001 25.1226 44.0589 28.0772 42.8979C24.3514 41.3816 21.8214 39.4234 20.6257 37.0667C20.4784 37.0753 20.3311 37.0753 20.1751 37.0753C11.9612 37.0753 7.60296 30.1524 9.0586 22.2937C10.4536 14.669 17.1426 7.62475 25.5298 7.62475C32.3921 7.6854 35.364 12.5115 36.1178 15.4834H45.2588C44.7303 9.20169 39.4363 0.0606514 27.0374 0ZM33.5531 29.4506C32.8513 30.447 30.7458 33.2543 27.332 35.1605C28.545 36.2435 31.1357 37.4999 35.5459 38.4876C38.5525 36.0269 41.0306 32.9337 42.6941 29.4506H33.5531ZM33.5531 29.4506C32.8513 30.447 30.7458 33.2543 27.332 35.1605C28.545 36.2435 31.1357 37.4999 35.5459 38.4876C38.5525 36.0269 41.0306 32.9337 42.6941 29.4506H33.5531ZM33.5531 29.4506C32.8513 30.447 30.7458 33.2543 27.332 35.1605C28.545 36.2435 31.1357 37.4999 35.5459 38.4876C38.5525 36.0269 41.0306 32.9337 42.6941 29.4506H33.5531ZM33.5531 29.4506C32.8513 30.447 30.7458 33.2543 27.332 35.1605C28.545 36.2435 31.1357 37.4999 35.5459 38.4876C38.5525 36.0269 41.0306 32.9337 42.6941 29.4506H33.5531ZM26.1016 35.7843C24.8886 36.3389 23.537 36.7548 22.0553 36.954C23.355 39.0595 25.989 40.8097 29.7754 42.1614C31.335 41.4249 32.834 40.5325 34.2289 39.5101C30.096 38.4877 27.41 37.162 26.1016 35.7843ZM33.5531 29.4506C32.8513 30.447 30.7458 33.2543 27.332 35.1605C28.545 36.2435 31.1357 37.4999 35.5459 38.4876C38.5525 36.0269 41.0306 32.9337 42.6941 29.4506H33.5531ZM33.5531 29.4506C32.8513 30.447 30.7458 33.2543 27.332 35.1605C28.545 36.2435 31.1357 37.4999 35.5459 38.4876C38.5525 36.0269 41.0306 32.9337 42.6941 29.4506H33.5531ZM33.5531 29.4506C32.8513 30.447 30.7458 33.2543 27.332 35.1605C28.545 36.2435 31.1357 37.4999 35.5459 38.4876C38.5525 36.0269 41.0306 32.9337 42.6941 29.4506H33.5531Z" fill="#08FF3F"/>
<path d="M139.096 0.814453L137.112 11.4111L136.297 16.064C135.483 14.2011 132.632 10.9432 126.524 10.9432C123.612 10.9432 120.718 11.6797 118.076 13.0574C117.573 13.3086 117.088 13.5946 116.611 13.8978C115.329 14.7036 114.125 15.674 113.024 16.7831C112.686 17.1297 112.357 17.4849 112.037 17.8662C109.74 20.5522 108.042 23.9486 107.314 27.8823C107.098 29.0347 106.985 30.1697 106.968 31.2701C110.208 30.0138 112.912 28.7141 115.017 27.4404C115.572 24.9624 116.984 22.571 119.046 20.8294C119.375 20.5348 119.731 20.2662 120.103 20.015C121.221 19.2611 122.495 18.6806 123.89 18.36C124.357 18.2474 124.843 18.1608 125.336 18.1088C125.744 18.0741 126.16 18.0481 126.584 18.0481C129.313 18.0481 131.584 19.0879 132.979 20.8381C134.434 22.5277 135.075 24.9104 134.616 27.709C134.2 30.499 132.693 33.003 130.535 34.8052C128.386 36.6075 125.709 37.7165 122.91 37.7165C119.696 37.7165 117.313 36.3908 115.979 34.3027C114.714 34.9612 113.336 35.6197 111.846 36.2609C110.694 36.7547 109.498 37.24 108.241 37.7165C110.2 42.0314 114.376 44.8734 120.354 44.8734C126.87 44.8734 130.483 41.6762 132.346 39.2848L131.471 43.8856H138.74L146.72 0.814453H139.096ZM112.037 17.8662C109.74 20.5522 108.042 23.9486 107.314 27.8823C107.098 29.0347 106.985 30.1697 106.968 31.2701C110.208 30.0138 112.912 28.7141 115.017 27.4404C115.572 24.9624 116.984 22.571 119.046 20.8294C117.894 19.8677 115.658 18.7846 112.037 17.8662ZM112.037 17.8662C109.74 20.5522 108.042 23.9486 107.314 27.8823C107.098 29.0347 106.985 30.1697 106.968 31.2701C110.208 30.0138 112.912 28.7141 115.017 27.4404C115.572 24.9624 116.984 22.571 119.046 20.8294C117.894 19.8677 115.658 18.7846 112.037 17.8662ZM114.783 29.0693C112.652 30.2737 110.035 31.4781 107.011 32.6305C107.098 33.9994 107.349 35.2991 107.765 36.5035C109.004 36.0356 110.2 35.5591 111.335 35.0652C112.79 34.4327 114.142 33.7915 115.381 33.1417C114.887 31.9373 114.679 30.551 114.783 29.0693ZM112.037 17.8662C109.74 20.5522 108.042 23.9486 107.314 27.8823C107.098 29.0347 106.985 30.1697 106.968 31.2701C110.208 30.0138 112.912 28.7141 115.017 27.4404C115.572 24.9624 116.984 22.571 119.046 20.8294C117.894 19.8677 115.658 18.7846 112.037 17.8662Z" fill="#08FF3F"/>
<path d="M116.204 28.229C115.762 28.5063 115.286 28.7922 114.783 29.0695C114.679 30.5511 114.887 31.9374 115.381 33.1418C115.779 32.9338 116.161 32.7259 116.533 32.5179C116.048 31.2702 115.927 29.8059 116.204 28.229ZM116.204 28.229C115.762 28.5063 115.286 28.7922 114.783 29.0695C114.679 30.5511 114.887 31.9374 115.381 33.1418C115.779 32.9338 116.161 32.7259 116.533 32.5179C116.048 31.2702 115.927 29.8059 116.204 28.229ZM116.204 28.229C115.762 28.5063 115.286 28.7922 114.783 29.0695C114.679 30.5511 114.887 31.9374 115.381 33.1418C115.779 32.9338 116.161 32.7259 116.533 32.5179C116.048 31.2702 115.927 29.8059 116.204 28.229ZM116.204 28.229C115.762 28.5063 115.286 28.7922 114.783 29.0695C114.679 30.5511 114.887 31.9374 115.381 33.1418C115.779 32.9338 116.161 32.7259 116.533 32.5179C116.048 31.2702 115.927 29.8059 116.204 28.229ZM116.204 28.229C115.762 28.5063 115.286 28.7922 114.783 29.0695C114.679 30.5511 114.887 31.9374 115.381 33.1418C115.779 32.9338 116.161 32.7259 116.533 32.5179C116.048 31.2702 115.927 29.8059 116.204 28.229ZM107.011 32.6306C106.595 32.7952 106.171 32.9598 105.737 33.1158C105.85 34.4674 106.119 35.7498 106.534 36.9541C106.95 36.8068 107.358 36.6509 107.765 36.5036C107.349 35.2992 107.098 33.9996 107.011 32.6306ZM116.204 28.229C115.762 28.5063 115.286 28.7922 114.783 29.0695C114.679 30.5511 114.887 31.9374 115.381 33.1418C115.779 32.9338 116.161 32.7259 116.533 32.5179C116.048 31.2702 115.927 29.8059 116.204 28.229ZM107.011 32.6306C106.595 32.7952 106.171 32.9598 105.737 33.1158C105.85 34.4674 106.119 35.7498 106.534 36.9541C106.95 36.8068 107.358 36.6509 107.765 36.5036C107.349 35.2992 107.098 33.9996 107.011 32.6306ZM116.204 28.229C115.762 28.5063 115.286 28.7922 114.783 29.0695C114.679 30.5511 114.887 31.9374 115.381 33.1418C115.779 32.9338 116.161 32.7259 116.533 32.5179C116.048 31.2702 115.927 29.8059 116.204 28.229ZM116.204 28.229C115.762 28.5063 115.286 28.7922 114.783 29.0695C114.679 30.5511 114.887 31.9374 115.381 33.1418C115.779 32.9338 116.161 32.7259 116.533 32.5179C116.048 31.2702 115.927 29.8059 116.204 28.229ZM107.011 32.6306C106.595 32.7952 106.171 32.9598 105.737 33.1158C105.85 34.4674 106.119 35.7498 106.534 36.9541C106.95 36.8068 107.358 36.6509 107.765 36.5036C107.349 35.2992 107.098 33.9996 107.011 32.6306ZM116.204 28.229C115.762 28.5063 115.286 28.7922 114.783 29.0695C114.679 30.5511 114.887 31.9374 115.381 33.1418C115.779 32.9338 116.161 32.7259 116.533 32.5179C116.048 31.2702 115.927 29.8059 116.204 28.229ZM107.011 32.6306C106.595 32.7952 106.171 32.9598 105.737 33.1158C105.85 34.4674 106.119 35.7498 106.534 36.9541C106.95 36.8068 107.358 36.6509 107.765 36.5036C107.349 35.2992 107.098 33.9996 107.011 32.6306ZM116.204 28.229C115.762 28.5063 115.286 28.7922 114.783 29.0695C114.679 30.5511 114.887 31.9374 115.381 33.1418C115.779 32.9338 116.161 32.7259 116.533 32.5179C116.048 31.2702 115.927 29.8059 116.204 28.229ZM116.204 28.229C115.762 28.5063 115.286 28.7922 114.783 29.0695C114.679 30.5511 114.887 31.9374 115.381 33.1418C115.779 32.9338 116.161 32.7259 116.533 32.5179C116.048 31.2702 115.927 29.8059 116.204 28.229Z" fill="white"/>
<path d="M148.782 11.9312H155.999L155.185 16.1248C157.108 13.2741 159.985 12.0525 164.811 11.9918L163.563 18.6288H163.217C157.862 18.6288 154.665 21.1328 153.669 26.6608L150.471 43.8858H142.847L148.782 11.9312Z" fill="white"/>
<path d="M167.766 11.931H175.391L169.456 43.8856H161.831L167.766 11.931ZM169.802 0.814453H177.427L176.145 7.62474H168.52L169.802 0.814453Z" fill="white"/>
<path d="M190.719 43.8858H183.267L177.332 11.9312H185.251L188.804 34.2769L200.622 11.9312H208.542L190.736 43.8858H190.719Z" fill="white"/>
<path d="M210.933 30.4388C210.352 35.5595 214.312 38.4101 218.731 38.3495C222.457 38.3495 225.246 36.6599 227.17 34.0432H235.029C232.871 37.5957 230.081 40.273 227.118 42.0752C224.094 43.9381 220.776 44.8652 217.457 44.8652C207.623 44.8652 202.034 36.8939 203.724 27.9868C205.413 18.9064 213.965 10.9351 223.626 10.9351C228.4 10.9351 232.239 12.7373 234.621 15.8218C237.819 19.8335 238.347 24.8416 236.658 30.4302H210.933V30.4388ZM230.194 24.6249C230.489 21.601 228.097 17.3468 222.457 17.4074C216.807 17.4074 212.969 21.4797 212.094 24.6249H230.194Z" fill="#08FF3F"/>
<path d="M125.327 21.514C125.232 20.8208 125.007 20.1623 124.669 19.5298C123.282 19.7811 122.043 20.3096 120.952 21.0288C121.151 21.3494 121.272 21.6786 121.316 22.0079C121.575 23.8447 119.73 26.0109 116.203 28.229C115.762 28.5062 115.285 28.7922 114.783 29.0694C114.679 30.551 114.886 31.9374 115.38 33.1417C115.779 32.9338 116.16 32.7258 116.533 32.5179C122.823 28.9914 125.847 25.231 125.327 21.514ZM125.327 21.514C125.232 20.8208 125.007 20.1623 124.669 19.5298C123.282 19.7811 122.043 20.3096 120.952 21.0288C121.151 21.3494 121.272 21.6786 121.316 22.0079C121.575 23.8447 119.73 26.0109 116.203 28.229C115.762 28.5062 115.285 28.7922 114.783 29.0694C112.651 30.2738 110.034 31.4781 107.01 32.6305C106.595 32.7951 106.17 32.9598 105.737 33.1157C97.7395 36.0443 87.1168 38.6523 74.9605 40.1773C68.0116 41.0437 61.1927 41.4943 54.6943 41.4943C45.8305 41.4943 39.0462 40.7058 34.2288 39.5101C30.0958 38.4877 27.4098 37.162 26.1015 35.7844C25.5729 35.2212 25.2697 34.658 25.1917 34.0948C24.3859 28.3676 44.0456 19.3825 71.5554 15.9254C78.487 15.0589 85.3059 14.6171 91.8043 14.6171C100.235 14.6171 106.794 15.3362 111.559 16.4279C112.599 15.2842 113.751 14.2531 114.999 13.378C109.333 11.6885 101.526 10.77 92.0296 10.77C85.3839 10.77 78.3137 11.2292 71.0182 12.1477C57.1203 13.8979 44.3922 17.0518 35.1732 21.0374C25.3737 25.283 20.5389 29.9705 21.1887 34.5887C21.3014 35.4205 21.5959 36.209 22.0552 36.9541C23.3548 39.0596 25.9888 40.8098 29.7752 42.1615C35.5371 44.2149 43.9677 45.3327 54.4777 45.3327C61.1233 45.3327 68.1936 44.8734 75.4891 43.955C87.1081 42.4907 97.9128 40.0473 106.534 36.9541C106.95 36.8068 107.357 36.6508 107.764 36.5035C109.003 36.0357 110.199 35.5591 111.334 35.0652C112.79 34.4327 114.141 33.7916 115.38 33.1417C115.779 32.9338 116.16 32.7258 116.533 32.5179C122.823 28.9914 125.847 25.231 125.327 21.514ZM116.611 13.8979C115.328 14.7037 114.124 15.6741 113.024 16.7832C116.455 17.7016 118.794 18.8367 120.103 20.015C121.22 19.2612 122.494 18.6807 123.889 18.3601C122.451 16.5752 119.99 15.0763 116.611 13.8979Z" fill="#08FF3F"/>
</svg>
