<svg width="188" height="52" viewBox="0 0 188 52" fill="none" xmlns="http://www.w3.org/2000/svg">
<path d="M39.1587 13C31.0185 13 24.4835 19.4507 23.2304 26.278C21.9099 33.4202 26.358 39.6232 34.2187 39.6232C36.1294 39.6232 38.0143 39.2413 39.7801 38.5498C37.5535 37.6467 36.0414 36.4804 35.3268 35.0767C35.2388 35.0819 35.1508 35.0819 35.0575 35.0819C30.1485 35.0819 27.5439 30.9586 28.4138 26.278C29.2475 21.7368 33.2451 17.5413 38.2577 17.5413C42.3589 17.5774 44.1351 20.4518 44.5856 22.2219H50.0487C49.7328 18.4805 46.5689 13.0361 39.1587 13ZM43.0528 30.5406C42.6334 31.1341 41.375 32.8061 39.3348 33.9414C40.0598 34.5865 41.6081 35.3348 44.2438 35.9231C46.0407 34.4575 47.5217 32.6152 48.5159 30.5406H43.0528ZM43.0528 30.5406C42.6334 31.1341 41.375 32.8061 39.3348 33.9414C40.0598 34.5865 41.6081 35.3348 44.2438 35.9231C46.0407 34.4575 47.5217 32.6152 48.5159 30.5406H43.0528ZM43.0528 30.5406C42.6334 31.1341 41.375 32.8061 39.3348 33.9414C40.0598 34.5865 41.6081 35.3348 44.2438 35.9231C46.0407 34.4575 47.5217 32.6152 48.5159 30.5406H43.0528ZM43.0528 30.5406C42.6334 31.1341 41.375 32.8061 39.3348 33.9414C40.0598 34.5865 41.6081 35.3348 44.2438 35.9231C46.0407 34.4575 47.5217 32.6152 48.5159 30.5406H43.0528ZM38.5995 34.313C37.8745 34.6432 37.0667 34.8909 36.1812 35.0096C36.958 36.2636 38.5322 37.3061 40.7951 38.1111C41.7272 37.6725 42.623 37.1409 43.4567 36.532C40.9867 35.9231 39.3814 35.1335 38.5995 34.313ZM43.0528 30.5406C42.6334 31.1341 41.375 32.8061 39.3348 33.9414C40.0598 34.5865 41.6081 35.3348 44.2438 35.9231C46.0407 34.4575 47.5217 32.6152 48.5159 30.5406H43.0528ZM43.0528 30.5406C42.6334 31.1341 41.375 32.8061 39.3348 33.9414C40.0598 34.5865 41.6081 35.3348 44.2438 35.9231C46.0407 34.4575 47.5217 32.6152 48.5159 30.5406H43.0528ZM43.0528 30.5406C42.6334 31.1341 41.375 32.8061 39.3348 33.9414C40.0598 34.5865 41.6081 35.3348 44.2438 35.9231C46.0407 34.4575 47.5217 32.6152 48.5159 30.5406H43.0528Z" fill="#08FF3F"/>
<path d="M106.129 13.4854L104.943 19.7967L104.456 22.5679C103.969 21.4584 102.266 19.518 98.6151 19.518C96.8752 19.518 95.1457 19.9567 93.5663 20.7772C93.2659 20.9268 92.976 21.0971 92.6912 21.2777C91.9248 21.7577 91.205 22.3357 90.5474 22.9962C90.3454 23.2026 90.1486 23.4142 89.957 23.6413C88.5848 25.241 87.5698 27.264 87.1349 29.6068C87.0054 30.2932 86.9381 30.9692 86.9277 31.6246C88.8644 30.8763 90.48 30.1022 91.7384 29.3436C92.0698 27.8677 92.9138 26.4434 94.1463 25.4062C94.343 25.2307 94.5553 25.0707 94.778 24.9211C95.446 24.4721 96.2072 24.1264 97.0409 23.9354C97.3205 23.8683 97.6105 23.8167 97.9057 23.7858C98.1491 23.7651 98.3976 23.7496 98.6514 23.7496C100.283 23.7496 101.639 24.3689 102.473 25.4113C103.343 26.4176 103.726 27.8368 103.452 29.5036C103.203 31.1653 102.302 32.6567 101.013 33.7301C99.7284 34.8035 98.1284 35.464 96.4558 35.464C94.5346 35.464 93.1106 34.6745 92.3131 33.4308C91.5571 33.823 90.7338 34.2152 89.8431 34.5971C89.1544 34.8912 88.4398 35.1802 87.6889 35.464C88.8592 38.034 91.3552 39.7266 94.9282 39.7266C98.8222 39.7266 100.982 37.8224 102.095 36.3981L101.572 39.1383H105.916L110.686 13.4854H106.129ZM89.957 23.6413C88.5848 25.241 87.5698 27.264 87.1349 29.6068C87.0054 30.2932 86.9381 30.9692 86.9277 31.6246C88.8644 30.8763 90.48 30.1022 91.7384 29.3436C92.0698 27.8677 92.9138 26.4434 94.1463 25.4062C93.4575 24.8333 92.1215 24.1883 89.957 23.6413ZM89.957 23.6413C88.5848 25.241 87.5698 27.264 87.1349 29.6068C87.0054 30.2932 86.9381 30.9692 86.9277 31.6246C88.8644 30.8763 90.48 30.1022 91.7384 29.3436C92.0698 27.8677 92.9138 26.4434 94.1463 25.4062C93.4575 24.8333 92.1215 24.1883 89.957 23.6413ZM91.5985 30.3138C90.3247 31.0311 88.7608 31.7485 86.9536 32.4348C87.0054 33.2502 87.1556 34.0242 87.4041 34.7416C88.1446 34.4629 88.8592 34.1791 89.5376 33.8849C90.4075 33.5082 91.2154 33.1263 91.9558 32.7393C91.6607 32.022 91.5364 31.1963 91.5985 30.3138ZM89.957 23.6413C88.5848 25.241 87.5698 27.264 87.1349 29.6068C87.0054 30.2932 86.9381 30.9692 86.9277 31.6246C88.8644 30.8763 90.48 30.1022 91.7384 29.3436C92.0698 27.8677 92.9138 26.4434 94.1463 25.4062C93.4575 24.8333 92.1215 24.1883 89.957 23.6413Z" fill="#08FF3F"/>
<path d="M92.4477 29.8125C92.1837 29.9776 91.8988 30.1479 91.5985 30.3131C91.5364 31.1955 91.6606 32.0212 91.9558 32.7385C92.194 32.6147 92.4219 32.4908 92.6445 32.367C92.3545 31.6238 92.282 30.7517 92.4477 29.8125ZM92.4477 29.8125C92.1837 29.9776 91.8988 30.1479 91.5985 30.3131C91.5364 31.1955 91.6606 32.0212 91.9558 32.7385C92.194 32.6147 92.4219 32.4908 92.6445 32.367C92.3545 31.6238 92.282 30.7517 92.4477 29.8125ZM92.4477 29.8125C92.1837 29.9776 91.8988 30.1479 91.5985 30.3131C91.5364 31.1955 91.6606 32.0212 91.9558 32.7385C92.194 32.6147 92.4219 32.4908 92.6445 32.367C92.3545 31.6238 92.282 30.7517 92.4477 29.8125ZM92.4477 29.8125C92.1837 29.9776 91.8988 30.1479 91.5985 30.3131C91.5364 31.1955 91.6606 32.0212 91.9558 32.7385C92.194 32.6147 92.4219 32.4908 92.6445 32.367C92.3545 31.6238 92.282 30.7517 92.4477 29.8125ZM92.4477 29.8125C92.1837 29.9776 91.8988 30.1479 91.5985 30.3131C91.5364 31.1955 91.6606 32.0212 91.9558 32.7385C92.194 32.6147 92.4219 32.4908 92.6445 32.367C92.3545 31.6238 92.282 30.7517 92.4477 29.8125ZM86.9536 32.434C86.705 32.5321 86.4513 32.6301 86.1924 32.723C86.2597 33.5281 86.4202 34.2918 86.6688 35.0091C86.9173 34.9214 87.1607 34.8285 87.4041 34.7408C87.1555 34.0235 87.0054 33.2494 86.9536 32.434ZM92.4477 29.8125C92.1837 29.9776 91.8988 30.1479 91.5985 30.3131C91.5364 31.1955 91.6606 32.0212 91.9558 32.7385C92.194 32.6147 92.4219 32.4908 92.6445 32.367C92.3545 31.6238 92.282 30.7517 92.4477 29.8125ZM86.9536 32.434C86.705 32.5321 86.4513 32.6301 86.1924 32.723C86.2597 33.5281 86.4202 34.2918 86.6688 35.0091C86.9173 34.9214 87.1607 34.8285 87.4041 34.7408C87.1555 34.0235 87.0054 33.2494 86.9536 32.434ZM92.4477 29.8125C92.1837 29.9776 91.8988 30.1479 91.5985 30.3131C91.5364 31.1955 91.6606 32.0212 91.9558 32.7385C92.194 32.6147 92.4219 32.4908 92.6445 32.367C92.3545 31.6238 92.282 30.7517 92.4477 29.8125ZM92.4477 29.8125C92.1837 29.9776 91.8988 30.1479 91.5985 30.3131C91.5364 31.1955 91.6606 32.0212 91.9558 32.7385C92.194 32.6147 92.4219 32.4908 92.6445 32.367C92.3545 31.6238 92.282 30.7517 92.4477 29.8125ZM86.9536 32.434C86.705 32.5321 86.4513 32.6301 86.1924 32.723C86.2597 33.5281 86.4202 34.2918 86.6688 35.0091C86.9173 34.9214 87.1607 34.8285 87.4041 34.7408C87.1555 34.0235 87.0054 33.2494 86.9536 32.434ZM92.4477 29.8125C92.1837 29.9776 91.8988 30.1479 91.5985 30.3131C91.5364 31.1955 91.6606 32.0212 91.9558 32.7385C92.194 32.6147 92.4219 32.4908 92.6445 32.367C92.3545 31.6238 92.282 30.7517 92.4477 29.8125ZM86.9536 32.434C86.705 32.5321 86.4513 32.6301 86.1924 32.723C86.2597 33.5281 86.4202 34.2918 86.6688 35.0091C86.9173 34.9214 87.1607 34.8285 87.4041 34.7408C87.1555 34.0235 87.0054 33.2494 86.9536 32.434ZM92.4477 29.8125C92.1837 29.9776 91.8988 30.1479 91.5985 30.3131C91.5364 31.1955 91.6606 32.0212 91.9558 32.7385C92.194 32.6147 92.4219 32.4908 92.6445 32.367C92.3545 31.6238 92.282 30.7517 92.4477 29.8125ZM92.4477 29.8125C92.1837 29.9776 91.8988 30.1479 91.5985 30.3131C91.5364 31.1955 91.6606 32.0212 91.9558 32.7385C92.194 32.6147 92.4219 32.4908 92.6445 32.367C92.3545 31.6238 92.282 30.7517 92.4477 29.8125Z" fill="white"/>
<path d="M111.92 20.106H116.234L115.747 22.6037C116.896 20.9058 118.616 20.1782 121.5 20.1421L120.754 24.095H120.547C117.347 24.095 115.436 25.5864 114.841 28.8788L112.93 39.138H108.373L111.92 20.106Z" fill="white"/>
<path d="M123.264 20.1063H127.821L124.274 39.1383H119.717L123.264 20.1063ZM124.481 13.4854H129.038L128.271 17.5415H123.714L124.481 13.4854Z" fill="white"/>
<path d="M136.982 39.138H132.529L128.981 20.106H133.714L135.837 33.415L142.901 20.106H147.634L136.992 39.138H136.982Z" fill="white"/>
<path d="M149.063 31.129C148.716 34.1789 151.083 35.8767 153.724 35.8406C155.95 35.8406 157.618 34.8343 158.767 33.2758H163.464C162.175 35.3916 160.507 36.9862 158.736 38.0596C156.929 39.1691 154.946 39.7213 152.962 39.7213C147.085 39.7213 143.745 34.9736 144.755 29.6686C145.765 24.2604 150.876 19.5127 156.649 19.5127C159.503 19.5127 161.797 20.5861 163.221 22.4232C165.131 24.8126 165.447 27.7953 164.438 31.1239H149.063V31.129ZM160.575 27.6663C160.751 25.8653 159.321 23.3315 155.95 23.3676C152.574 23.3676 150.28 25.7931 149.757 27.6663H160.575Z" fill="#08FF3F"/>
<path d="M97.9012 25.8136C97.8442 25.4008 97.7096 25.0086 97.5077 24.6318C96.6791 24.7815 95.9386 25.0963 95.2862 25.5246C95.4053 25.7156 95.4778 25.9117 95.5037 26.1078C95.659 27.2018 94.556 28.4919 92.4485 29.813C92.1844 29.9781 91.8996 30.1484 91.5992 30.3136C91.5371 31.196 91.6614 32.0217 91.9565 32.739C92.1947 32.6152 92.4226 32.4913 92.6452 32.3675C96.4047 30.2671 98.2119 28.0275 97.9012 25.8136ZM97.9012 25.8136C97.8442 25.4008 97.7096 25.0086 97.5077 24.6318C96.6791 24.7815 95.9386 25.0963 95.2862 25.5246C95.4053 25.7156 95.4778 25.9117 95.5037 26.1078C95.659 27.2018 94.556 28.4919 92.4485 29.813C92.1844 29.9781 91.8996 30.1484 91.5992 30.3136C90.3254 31.0309 88.7615 31.7482 86.9543 32.4346C86.7058 32.5326 86.452 32.6307 86.1931 32.7235C81.4136 34.4678 75.065 36.0211 67.7999 36.9294C63.6469 37.4454 59.5716 37.7138 55.6879 37.7138C50.3905 37.7138 46.3359 37.2442 43.4568 36.532C40.9868 35.9231 39.3815 35.1335 38.5996 34.313C38.2837 33.9776 38.1025 33.6421 38.0558 33.3067C37.5743 29.8956 49.3238 24.5441 65.7648 22.4851C69.9074 21.969 73.9827 21.7058 77.8664 21.7058C82.9049 21.7058 86.8249 22.1341 89.6729 22.7844C90.2943 22.1032 90.983 21.4891 91.7287 20.9679C88.3421 19.9616 83.6765 19.4146 78.0011 19.4146C74.0293 19.4146 69.8039 19.6881 65.4438 20.2351C57.1378 21.2775 49.5309 23.1559 44.0212 25.5298C38.1646 28.0584 35.2751 30.8503 35.6635 33.6008C35.7308 34.0962 35.9069 34.5659 36.1813 35.0097C36.9581 36.2637 38.5322 37.3061 40.7952 38.1111C44.2387 39.3342 49.2772 39.9999 55.5584 39.9999C59.5302 39.9999 63.7556 39.7264 68.1157 39.1794C75.0598 38.3072 81.5171 36.852 86.6695 35.0097C86.9181 34.9219 87.1615 34.829 87.4048 34.7413C88.1453 34.4626 88.8599 34.1788 89.5383 33.8847C90.4082 33.5079 91.216 33.1261 91.9565 32.739C92.1947 32.6152 92.4226 32.4913 92.6452 32.3675C96.4047 30.2671 98.2119 28.0275 97.9012 25.8136ZM92.6919 21.2775C91.9255 21.7574 91.2057 22.3354 90.548 22.996C92.5986 23.543 93.9968 24.219 94.7787 24.9208C95.4467 24.4719 96.2079 24.1261 97.0416 23.9352C96.182 22.8721 94.7114 21.9793 92.6919 21.2775Z" fill="#08FF3F"/>
</svg>
