<svg width="416" height="116" viewBox="0 0 416 116" fill="none" xmlns="http://www.w3.org/2000/svg">
<path d="M86.6491 29C68.6367 29 54.1763 43.3899 51.4033 58.6202C48.4815 74.5527 58.3242 88.3901 75.7179 88.3901C79.946 88.3901 84.1168 87.5382 88.0241 85.9956C83.097 83.981 79.7512 81.3793 78.17 78.2481C77.9752 78.2596 77.7804 78.2596 77.5741 78.2596C66.7117 78.2596 60.9481 69.0616 62.8731 58.6202C64.7179 48.4897 73.5637 39.1305 84.6554 39.1305C93.7304 39.2111 97.6606 45.6232 98.6574 49.5718H110.746C110.047 41.2257 103.046 29.0806 86.6491 29ZM95.2658 68.1291C94.3377 69.453 91.5533 73.1828 87.0387 75.7155C88.6429 77.1544 92.0689 78.8237 97.9012 80.136C101.877 76.8666 105.154 72.7569 107.354 68.1291H95.2658ZM95.2658 68.1291C94.3377 69.453 91.5533 73.1828 87.0387 75.7155C88.6429 77.1544 92.0689 78.8237 97.9012 80.136C101.877 76.8666 105.154 72.7569 107.354 68.1291H95.2658ZM95.2658 68.1291C94.3377 69.453 91.5533 73.1828 87.0387 75.7155C88.6429 77.1544 92.0689 78.8237 97.9012 80.136C101.877 76.8666 105.154 72.7569 107.354 68.1291H95.2658ZM95.2658 68.1291C94.3377 69.453 91.5533 73.1828 87.0387 75.7155C88.6429 77.1544 92.0689 78.8237 97.9012 80.136C101.877 76.8666 105.154 72.7569 107.354 68.1291H95.2658ZM85.4116 76.5443C83.8075 77.2811 82.02 77.8337 80.0606 78.0984C81.7793 80.8958 85.2627 83.2212 90.27 85.0171C92.3324 84.0386 94.3147 82.8529 96.1595 81.4944C90.6939 80.136 87.1418 78.3747 85.4116 76.5443ZM95.2658 68.1291C94.3377 69.453 91.5533 73.1828 87.0387 75.7155C88.6429 77.1544 92.0689 78.8237 97.9012 80.136C101.877 76.8666 105.154 72.7569 107.354 68.1291H95.2658ZM95.2658 68.1291C94.3377 69.453 91.5533 73.1828 87.0387 75.7155C88.6429 77.1544 92.0689 78.8237 97.9012 80.136C101.877 76.8666 105.154 72.7569 107.354 68.1291H95.2658ZM95.2658 68.1291C94.3377 69.453 91.5533 73.1828 87.0387 75.7155C88.6429 77.1544 92.0689 78.8237 97.9012 80.136C101.877 76.8666 105.154 72.7569 107.354 68.1291H95.2658Z" fill="#08FF3F"/>
<path d="M234.838 30.0825L232.214 44.1616L231.137 50.3435C230.06 47.8685 226.29 43.54 218.212 43.54C214.362 43.54 210.535 44.5185 207.04 46.3489C206.376 46.6827 205.734 47.0626 205.104 47.4656C203.408 48.5362 201.815 49.8255 200.36 51.299C199.913 51.7595 199.478 52.2315 199.054 52.738C196.017 56.3067 193.771 60.8194 192.809 66.0458C192.522 67.5769 192.373 69.085 192.351 70.547C196.636 68.8778 200.211 67.151 202.995 65.4587C203.729 62.1663 205.596 58.989 208.323 56.6751C208.759 56.2837 209.229 55.9268 209.721 55.593C211.199 54.5914 212.884 53.8201 214.729 53.3942C215.347 53.2445 215.989 53.1294 216.642 53.0604C217.181 53.0143 217.731 52.9798 218.292 52.9798C221.902 52.9798 224.904 54.3612 226.748 56.6866C228.673 58.9314 229.521 62.0972 228.914 65.8156C228.364 69.5224 226.37 72.8494 223.517 75.2439C220.676 77.6383 217.135 79.1119 213.434 79.1119C209.183 79.1119 206.032 77.3506 204.267 74.5762C202.594 75.4511 200.772 76.326 198.802 77.1779C197.278 77.834 195.696 78.4787 194.035 79.1119C196.625 84.8448 202.147 88.6207 210.054 88.6207C218.67 88.6207 223.448 84.3728 225.912 81.1955L224.755 87.3084H234.368L244.921 30.0825H234.838ZM199.054 52.738C196.017 56.3067 193.771 60.8194 192.809 66.0458C192.522 67.5769 192.373 69.085 192.351 70.547C196.636 68.8778 200.211 67.151 202.995 65.4587C203.729 62.1663 205.596 58.989 208.323 56.6751C206.799 55.3973 203.843 53.9583 199.054 52.738ZM199.054 52.738C196.017 56.3067 193.771 60.8194 192.809 66.0458C192.522 67.5769 192.373 69.085 192.351 70.547C196.636 68.8778 200.211 67.151 202.995 65.4587C203.729 62.1663 205.596 58.989 208.323 56.6751C206.799 55.3973 203.843 53.9583 199.054 52.738ZM202.686 67.623C199.867 69.2231 196.407 70.8233 192.408 72.3544C192.522 74.1733 192.855 75.9 193.405 77.5002C195.043 76.8786 196.625 76.2454 198.126 75.5892C200.051 74.7489 201.838 73.897 203.477 73.0336C202.823 71.4334 202.548 69.5915 202.686 67.623ZM199.054 52.738C196.017 56.3067 193.771 60.8194 192.809 66.0458C192.522 67.5769 192.373 69.085 192.351 70.547C196.636 68.8778 200.211 67.151 202.995 65.4587C203.729 62.1663 205.596 58.989 208.323 56.6751C206.799 55.3973 203.843 53.9583 199.054 52.738Z" fill="#08FF3F"/>
<path d="M204.565 66.5044C203.981 66.8728 203.35 67.2527 202.686 67.6211C202.548 69.5896 202.823 71.4315 203.476 73.0317C204.003 72.7554 204.508 72.4791 205 72.2028C204.359 70.5451 204.198 68.5996 204.565 66.5044ZM204.565 66.5044C203.981 66.8728 203.35 67.2527 202.686 67.6211C202.548 69.5896 202.823 71.4315 203.476 73.0317C204.003 72.7554 204.508 72.4791 205 72.2028C204.359 70.5451 204.198 68.5996 204.565 66.5044ZM204.565 66.5044C203.981 66.8728 203.35 67.2527 202.686 67.6211C202.548 69.5896 202.823 71.4315 203.476 73.0317C204.003 72.7554 204.508 72.4791 205 72.2028C204.359 70.5451 204.198 68.5996 204.565 66.5044ZM204.565 66.5044C203.981 66.8728 203.35 67.2527 202.686 67.6211C202.548 69.5896 202.823 71.4315 203.476 73.0317C204.003 72.7554 204.508 72.4791 205 72.2028C204.359 70.5451 204.198 68.5996 204.565 66.5044ZM204.565 66.5044C203.981 66.8728 203.35 67.2527 202.686 67.6211C202.548 69.5896 202.823 71.4315 203.476 73.0317C204.003 72.7554 204.508 72.4791 205 72.2028C204.359 70.5451 204.198 68.5996 204.565 66.5044ZM192.408 72.3525C191.858 72.5712 191.296 72.7899 190.723 72.9971C190.872 74.793 191.227 76.4968 191.777 78.0969C192.327 77.9012 192.866 77.694 193.404 77.4983C192.854 75.8981 192.522 74.1713 192.408 72.3525ZM204.565 66.5044C203.981 66.8728 203.35 67.2527 202.686 67.6211C202.548 69.5896 202.823 71.4315 203.476 73.0317C204.003 72.7554 204.508 72.4791 205 72.2028C204.359 70.5451 204.198 68.5996 204.565 66.5044ZM192.408 72.3525C191.858 72.5712 191.296 72.7899 190.723 72.9971C190.872 74.793 191.227 76.4968 191.777 78.0969C192.327 77.9012 192.866 77.694 193.404 77.4983C192.854 75.8981 192.522 74.1713 192.408 72.3525ZM204.565 66.5044C203.981 66.8728 203.35 67.2527 202.686 67.6211C202.548 69.5896 202.823 71.4315 203.476 73.0317C204.003 72.7554 204.508 72.4791 205 72.2028C204.359 70.5451 204.198 68.5996 204.565 66.5044ZM204.565 66.5044C203.981 66.8728 203.35 67.2527 202.686 67.6211C202.548 69.5896 202.823 71.4315 203.476 73.0317C204.003 72.7554 204.508 72.4791 205 72.2028C204.359 70.5451 204.198 68.5996 204.565 66.5044ZM192.408 72.3525C191.858 72.5712 191.296 72.7899 190.723 72.9971C190.872 74.793 191.227 76.4968 191.777 78.0969C192.327 77.9012 192.866 77.694 193.404 77.4983C192.854 75.8981 192.522 74.1713 192.408 72.3525ZM204.565 66.5044C203.981 66.8728 203.35 67.2527 202.686 67.6211C202.548 69.5896 202.823 71.4315 203.476 73.0317C204.003 72.7554 204.508 72.4791 205 72.2028C204.359 70.5451 204.198 68.5996 204.565 66.5044ZM192.408 72.3525C191.858 72.5712 191.296 72.7899 190.723 72.9971C190.872 74.793 191.227 76.4968 191.777 78.0969C192.327 77.9012 192.866 77.694 193.404 77.4983C192.854 75.8981 192.522 74.1713 192.408 72.3525ZM204.565 66.5044C203.981 66.8728 203.35 67.2527 202.686 67.6211C202.548 69.5896 202.823 71.4315 203.476 73.0317C204.003 72.7554 204.508 72.4791 205 72.2028C204.359 70.5451 204.198 68.5996 204.565 66.5044ZM204.565 66.5044C203.981 66.8728 203.35 67.2527 202.686 67.6211C202.548 69.5896 202.823 71.4315 203.476 73.0317C204.003 72.7554 204.508 72.4791 205 72.2028C204.359 70.5451 204.198 68.5996 204.565 66.5044Z" fill="white"/>
<path d="M247.654 44.8521H257.198L256.121 50.4238C258.665 46.6364 262.469 45.0132 268.851 44.9326L267.201 53.7508H266.743C259.662 53.7508 255.434 57.0777 254.116 64.4223L249.888 87.3081H239.805L247.654 44.8521Z" fill="white"/>
<path d="M272.754 44.8523H282.837L274.989 87.3084H264.905L272.754 44.8523ZM275.447 30.0825H285.53L283.834 39.1309H273.751L275.447 30.0825Z" fill="white"/>
<path d="M303.109 87.3076H293.255L285.406 44.8516H295.879L300.577 74.5409L316.206 44.8516H326.679L303.132 87.3076H303.109Z" fill="white"/>
<path d="M329.842 69.4417C329.074 76.2453 334.311 80.0327 340.155 79.9521C345.082 79.9521 348.771 77.7073 351.315 74.2307H361.708C358.855 78.9506 355.165 82.5078 351.246 84.9022C347.247 87.3773 342.859 88.6091 338.47 88.6091C325.465 88.6091 318.074 78.0181 320.309 66.1838C322.543 54.1193 333.852 43.5283 346.629 43.5283C352.942 43.5283 358.018 45.9228 361.169 50.0211C365.397 55.3511 366.096 62.005 363.862 69.4302H329.842V69.4417ZM355.314 61.7172C355.704 57.6995 352.541 52.0472 345.082 52.1277C337.611 52.1277 332.535 57.5384 331.378 61.7172H355.314Z" fill="#08FF3F"/>
<path d="M216.632 57.5839C216.506 56.6629 216.208 55.788 215.761 54.9477C213.928 55.2815 212.29 55.9837 210.846 56.9392C211.109 57.3652 211.27 57.8026 211.327 58.2401C211.671 60.6806 209.23 63.5586 204.567 66.5056C203.982 66.874 203.352 67.2539 202.687 67.6223C202.55 69.5908 202.825 71.4328 203.478 73.0329C204.005 72.7566 204.509 72.4803 205.002 72.2041C213.321 67.5187 217.32 62.5225 216.632 57.5839ZM216.632 57.5839C216.506 56.6629 216.208 55.788 215.761 54.9477C213.928 55.2815 212.29 55.9837 210.846 56.9392C211.109 57.3652 211.27 57.8026 211.327 58.2401C211.671 60.6806 209.23 63.5586 204.567 66.5056C203.982 66.874 203.352 67.2539 202.687 67.6223C199.869 69.2225 196.408 70.8226 192.409 72.3537C191.859 72.5724 191.298 72.7912 190.725 72.9984C180.149 76.8894 166.101 80.3545 150.025 82.3806C140.835 83.5318 131.818 84.1304 123.224 84.1304C111.502 84.1304 102.53 83.0828 96.1595 81.4942C90.6939 80.1358 87.1418 78.3745 85.4116 76.5441C84.7126 75.7958 84.3116 75.0475 84.2085 74.2992C83.1429 66.6898 109.142 54.752 145.522 50.1587C154.689 49.0075 163.706 48.4204 172.3 48.4204C183.449 48.4204 192.123 49.3759 198.425 50.8264C199.8 49.3068 201.324 47.9369 202.974 46.7742C195.48 44.5293 185.156 43.3091 172.598 43.3091C163.809 43.3091 154.459 43.9192 144.812 45.1395C126.432 47.4649 109.6 51.6552 97.4085 56.9507C84.4491 62.5916 78.0554 68.8195 78.9147 74.9554C79.0637 76.0606 79.4533 77.1081 80.0606 78.0982C81.7793 80.8956 85.2626 83.221 90.2699 85.0168C97.8897 87.7452 109.039 89.2302 122.938 89.2302C131.726 89.2302 141.076 88.6201 150.724 87.3998C166.09 85.4543 180.378 82.2079 191.779 78.0982C192.329 77.9025 192.868 77.6953 193.406 77.4995C195.045 76.8779 196.626 76.2448 198.127 75.5886C200.052 74.7482 201.84 73.8963 203.478 73.0329C204.005 72.7566 204.509 72.4803 205.002 72.2041C213.321 67.5187 217.32 62.5225 216.632 57.5839ZM205.105 47.4649C203.409 48.5355 201.817 49.8248 200.361 51.2984C204.899 52.5186 207.993 54.0267 209.723 55.5923C211.201 54.5908 212.885 53.8195 214.73 53.3935C212.828 51.0221 209.574 49.0305 205.105 47.4649Z" fill="#08FF3F"/>
</svg>
