<svg width="114" height="20" viewBox="0 0 114 20" fill="none" xmlns="http://www.w3.org/2000/svg">
<path d="M10 1.66699L13.1838 5.61815L17.9255 7.42518L15.1516 11.6742L14.8982 16.7421L10 15.417L5.10179 16.7421L4.84845 11.6742L2.07453 7.42518L6.81617 5.61815L10 1.66699Z" fill="#08FF3F"/>
<path d="M33.3333 1.66699L36.5172 5.61815L41.2588 7.42518L38.4849 11.6742L38.2315 16.7421L33.3333 15.417L28.4351 16.7421L28.1818 11.6742L25.4079 7.42518L30.1495 5.61815L33.3333 1.66699Z" fill="#08FF3F"/>
<path d="M56.6667 1.66699L59.8505 5.61815L64.5921 7.42518L61.8182 11.6742L61.5649 16.7421L56.6667 15.417L51.7685 16.7421L51.5151 11.6742L48.7412 7.42518L53.4828 5.61815L56.6667 1.66699Z" fill="#08FF3F"/>
<path d="M80 1.66699L83.1838 5.61815L87.9255 7.42518L85.1516 11.6742L84.8982 16.7421L80 15.417L75.1018 16.7421L74.8484 11.6742L72.0745 7.42518L76.8162 5.61815L80 1.66699Z" fill="#08FF3F"/>
<path d="M103.333 1.66699L106.517 5.61815L111.259 7.42518L108.485 11.6742L108.232 16.7421L103.333 15.417L98.4351 16.7421L98.1818 11.6742L95.4079 7.42518L100.149 5.61815L103.333 1.66699Z" fill="#08FF3F"/>
</svg>
