<svg width="12" height="10" viewBox="0 0 12 10" fill="none" xmlns="http://www.w3.org/2000/svg">
<path d="M10.5916 1.848L6.75581 3.766C9.94528 3.85 11.0974 5.054 11.0974 6.79C11.0974 8.568 9.67832 9.982 5.56152 9.982C1.40256 9.982 0.0537109 8.624 0.0537109 6.538V6.3H2.5547V6.496C2.5547 7.462 3.17293 8.092 5.56152 8.092C7.95011 8.092 8.59643 7.462 8.59643 6.678C8.59643 5.908 7.95011 5.278 5.77227 5.278H3.52419V3.962L8.32947 1.526V1.288C7.43024 1.652 6.22189 1.96 4.88709 1.96H0.475227V0H10.5916V1.848Z" fill="#646875"/>
</svg>
