<svg width="44" height="44" viewBox="0 0 44 44" fill="none" xmlns="http://www.w3.org/2000/svg">
<path fill-rule="evenodd" clip-rule="evenodd" d="M12.3906 13.0902C12.4141 7.72296 16.7817 3.39254 22.147 3.41439C27.5121 3.41601 31.8625 7.76733 31.8625 13.1329V18.0488H29.1125V13.1329C29.1125 9.28511 25.9917 6.16439 22.144 6.16439H22.1379C18.2912 6.14755 15.159 9.25095 15.1406 13.0994V18.0488H12.3906L12.3906 13.0902Z" fill="white"/>
<path fill-rule="evenodd" clip-rule="evenodd" d="M23.249 24.4106V31.2325H20.499V24.4106H23.249Z" fill="white"/>
<path fill-rule="evenodd" clip-rule="evenodd" d="M6.79395 40.0808L6.79394 15.5627L37.4564 15.5627L37.4564 40.0808L6.79395 40.0808ZM9.54395 37.3308L34.7064 37.3308L34.7064 18.3127L9.54394 18.3127L9.54395 37.3308Z" fill="white"/>
</svg>
