<svg width="18" height="18" viewBox="0 0 18 18" fill="none" xmlns="http://www.w3.org/2000/svg">
<path fill-rule="evenodd" clip-rule="evenodd" d="M5.06836 5.35505C5.07797 3.15936 6.86469 1.38782 9.05959 1.39676C10.2026 1.39711 11.2336 1.88073 11.9579 2.65263L12.3428 3.06282L11.5225 3.83263L11.1376 3.42245C10.6167 2.86734 9.87818 2.52176 9.05836 2.52176H9.0559C7.48225 2.51487 6.20088 3.78445 6.19336 5.3588V7.38356H5.06836L5.06836 5.35505Z" fill="white"/>
<path fill-rule="evenodd" clip-rule="evenodd" d="M9.51074 9.98633V12.7771H8.38574V9.98633H9.51074Z" fill="white"/>
<path fill-rule="evenodd" clip-rule="evenodd" d="M2.7793 16.3967L2.7793 6.36658L15.323 6.36658L15.323 16.3967L2.7793 16.3967ZM3.9043 15.2717L14.198 15.2717L14.198 7.49158L3.9043 7.49158L3.9043 15.2717Z" fill="white"/>
</svg>
