<svg width="24" height="24" viewBox="0 0 24 24" fill="none" xmlns="http://www.w3.org/2000/svg">
<g clip-path="url(#clip0_2319_22560)">
<path fill-rule="evenodd" clip-rule="evenodd" d="M23.6798 6.78008V8.21008H20.2198V11.6701H18.7898V8.21008H15.3398V6.78008H18.7898V3.33008H20.2198V6.78008H23.6798Z" fill="white"/>
<path d="M18.6701 13.0701C17.1901 15.9801 13.9501 18.3201 11.0001 19.6901C7.00006 17.8401 2.48006 14.1901 2.50006 9.77014C2.50006 7.86014 3.41006 5.52014 5.94006 4.71014C6.40006 4.56014 6.83006 4.49014 7.25006 4.49014C8.47006 4.49014 9.52006 5.11014 10.3801 6.35014L11.0001 7.23014L11.6201 6.35014C12.7801 4.69014 14.2701 4.13014 16.0601 4.71014C16.5701 4.87014 17.0101 5.10014 17.3901 5.38014V3.65014C17.1101 3.51014 16.8201 3.39014 16.5201 3.29014C14.4101 2.61014 12.4801 3.12014 11.0001 4.73014C9.52006 3.12014 7.59006 2.61014 5.48006 3.29014C2.73006 4.17014 1.01006 6.66014 1.00006 9.76014C0.98006 15.0201 5.99006 19.1201 10.7001 21.2101L11.0001 21.3401L11.3001 21.2101C14.9701 19.5801 18.8301 16.7301 20.3401 13.0701H18.6701Z" fill="white"/>
</g>
<defs>
<clipPath id="clip0_2319_22560">
<rect width="22.68" height="18.34" fill="white" transform="translate(1 3)"/>
</clipPath>
</defs>
</svg>
