<svg width="34" height="34" viewBox="0 0 34 34" fill="none" xmlns="http://www.w3.org/2000/svg">
<path d="M17 3C9.265 3 3 9.265 3 17C3 23.195 7.0075 28.4275 12.5725 30.2825C13.2725 30.405 13.535 29.985 13.535 29.6175C13.535 29.285 13.5175 28.1825 13.5175 27.01C10 27.6575 9.09 26.1525 8.81 25.365C8.6525 24.9625 7.97 23.72 7.375 23.3875C6.885 23.125 6.185 22.4775 7.3575 22.46C8.46 22.4425 9.2475 23.475 9.51 23.895C10.77 26.0125 12.7825 25.4175 13.5875 25.05C13.71 24.14 14.0775 23.5275 14.48 23.1775C11.365 22.8275 8.11 21.62 8.11 16.265C8.11 14.7425 8.6525 13.4825 9.545 12.5025C9.405 12.1525 8.915 10.7175 9.685 8.7925C9.685 8.7925 10.8575 8.425 13.535 10.2275C14.655 9.9125 15.845 9.755 17.035 9.755C18.225 9.755 19.415 9.9125 20.535 10.2275C23.2125 8.4075 24.385 8.7925 24.385 8.7925C25.155 10.7175 24.665 12.1525 24.525 12.5025C25.4175 13.4825 25.96 14.725 25.96 16.265C25.96 21.6375 22.6875 22.8275 19.5725 23.1775C20.08 23.615 20.5175 24.455 20.5175 25.7675C20.5175 27.64 20.5 29.145 20.5 29.6175C20.5 29.985 20.7625 30.4225 21.4625 30.2825C24.2418 29.3443 26.6568 27.5581 28.3677 25.1753C30.0786 22.7926 30.9993 19.9334 31 17C31 9.265 24.735 3 17 3Z" fill="#0B0C0F"/>
</svg>
