<svg width="18" height="19" viewBox="0 0 18 19" fill="none" xmlns="http://www.w3.org/2000/svg">
<path fill-rule="evenodd" clip-rule="evenodd" d="M5.06885 5.85505C5.07846 3.65936 6.86518 1.88782 9.06007 1.89676C11.2549 1.89742 13.0346 3.67751 13.0346 5.87251V7.88356H11.9096V5.87251C11.9096 4.29842 10.6329 3.02176 9.05885 3.02176H9.05639C7.48274 3.01487 6.20137 4.28445 6.19385 5.8588V7.88356H5.06885L5.06885 5.85505Z" fill="white"/>
<path fill-rule="evenodd" clip-rule="evenodd" d="M9.51074 10.4862V13.277H8.38574V10.4862H9.51074Z" fill="white"/>
<path fill-rule="evenodd" clip-rule="evenodd" d="M2.7793 16.8967L2.7793 6.86658L15.323 6.86658L15.323 16.8967L2.7793 16.8967ZM3.9043 15.7717L14.198 15.7717L14.198 7.99158L3.9043 7.99158L3.9043 15.7717Z" fill="white"/>
</svg>
